# xmcd
#
# Track frame offsets:
#	150
#	23133
#	46881
#	67279
#	91649
#	108385
#	126364
#	147621
#	164288
# Disc length: 2438 seconds
# Revision: 1
# Processed by: cddbd v1.5.2PL0 Copyright (c) Steve Scherf et al.
#
# Submitted via: libkcddb 0.31
#
DISCID=7d098409
DTITLE=Phönix Rising - I
DYEAR=2006
DGENRE=Metal
TTITLE0=Thunder and Lightning
TTITLE1=Digital Dreams
TTITLE2=Angel of Darkness
TTITLE3=Heart of Ice
TTITLE4=Back on the Streets
TTITLE5=Out fo the Dark
TTITLE6=Wild and crazy Nights
TTITLE7=It's gonna be
TTITLE8=Armed and Ready
EXTD=
EXTT0=
EXTT1=
EXTT2=
EXTT3=
EXTT4=
EXTT5=
EXTT6=
EXTT7=
EXTT8=
PLAYORDER=
